<?xml version="1.0" standalone="no"?>
<!DOCTYPE svg PUBLIC "-//W3C//DTD SVG 20010904//EN"
 "http://www.w3.org/TR/2001/REC-SVG-20010904/DTD/svg10.dtd">
<svg version="1.0" xmlns="http://www.w3.org/2000/svg"
 width="460.000000pt" height="460.000000pt" viewBox="0 0 460.000000 460.000000"
 preserveAspectRatio="xMidYMid meet">
<metadata>
Created by potrace 1.14, written by Peter Selinger 2001-2017
</metadata>
<g transform="translate(0.000000,460.000000) scale(0.100000,-0.100000)"
fill="#000000" stroke="none">
<path d="M0 2300 l0 -2300 2300 0 2300 0 0 2300 0 2300 -2300 0 -2300 0 0
-2300z m4549 1618 c-1 -348 -4 -644 -9 -658 l-8 -25 -3 25 c-2 14 -6 -22 -9
-80 -3 -58 -7 218 -8 613 l-2 717 -172 0 c-782 -1 -1632 9 -1520 18 13 1 20 7
17 12 -4 7 283 10 854 10 l860 0 0 -632z m-247 511 c63 -103 66 -129 15 -145
-12 -4 -41 -19 -65 -35 -24 -16 -48 -29 -55 -29 -12 1 -97 138 -97 158 0 9 24
25 135 88 29 17 36 13 67 -37z m-500 4 c36 -34 35 -55 -2 -87 -34 -28 -50 -25
-84 21 -18 25 -18 25 15 59 18 19 35 34 38 34 3 0 18 -12 33 -27z m-2872 -48
c0 -20 -5 -25 -25 -25 -20 0 -25 5 -25 25 0 20 5 25 25 25 20 0 25 -5 25 -25z
m2330 -55 c0 -27 -3 -30 -30 -30 -25 0 -30 4 -30 23 0 13 3 27 7 30 3 4 17 7
30 7 19 0 23 -5 23 -30z m-1320 -10 c0 -5 -4 -10 -10 -10 -5 0 -10 5 -10 10 0
6 5 10 10 10 6 0 10 -4 10 -10z m-230 -135 c0 -20 -5 -25 -25 -25 -20 0 -25 5
-25 25 0 20 5 25 25 25 20 0 25 -5 25 -25z m1010 -6 c0 -5 -7 -9 -15 -9 -15 0
-20 12 -9 23 8 8 24 -1 24 -14z m686 -200 c10 -17 -13 -36 -27 -22 -12 12 -4
33 11 33 5 0 12 -5 16 -11z m-346 -39 c0 -5 -4 -10 -10 -10 -5 0 -10 5 -10 10
0 6 5 10 10 10 6 0 10 -4 10 -10z m226 -168 c7 -9 15 -27 18 -38 3 -12 30 -73
60 -135 95 -201 135 -287 316 -679 98 -212 196 -425 219 -473 23 -49 41 -90
41 -92 0 -2 27 -60 60 -128 33 -69 60 -129 60 -134 0 -10 -1662 -5 -1670 5 -4
4 -24 45 -45 92 -58 129 -135 293 -145 312 -6 10 -103 219 -216 465 -248 539
-342 740 -370 795 -8 14 -14 29 -14 34 0 4 376 4 837 0 776 -6 837 -8 849 -24z
m584 -157 c0 -8 -9 -15 -20 -15 -11 0 -20 7 -20 15 0 8 9 15 20 15 11 0 20 -7
20 -15z m475 -63 c-22 -52 -30 -57 -59 -39 -25 17 -25 18 -9 54 22 55 21 54
54 38 l29 -16 -15 -37z m-545 -353 c0 -27 -3 -30 -27 -27 -22 2 -29 9 -31 31
-3 24 0 27 27 27 28 0 31 -3 31 -31z m416 -90 c10 -17 -13 -36 -27 -22 -12 12
-4 33 11 33 5 0 12 -5 16 -11z m301 -171 c-2 -13 -4 -3 -4 22 0 25 2 35 4 23
2 -13 2 -33 0 -45z m-499 -240 c-6 -18 -28 -21 -28 -4 0 9 7 16 16 16 9 0 14
-5 12 -12z m257 -1038 c0 -16 -6 -26 -18 -28 -19 -4 -32 20 -23 44 9 25 41 13
41 -16z m-625 -396 c0 -28 -3 -35 -15 -31 -8 4 -17 2 -20 -3 -12 -20 -45 10
-45 40 0 28 2 30 40 30 39 0 40 -1 40 -36z m363 -641 c-7 -2 -19 -2 -25 0 -7
3 -2 5 12 5 14 0 19 -2 13 -5z"/>
<path d="M3018 4533 c7 -3 16 -2 19 1 4 3 -2 6 -13 5 -11 0 -14 -3 -6 -6z"/>
<path d="M4523 3400 c0 -47 2 -66 4 -42 2 23 2 61 0 85 -2 23 -4 4 -4 -43z"/>
</g>
</svg>
